<svg width="56" height="56" viewBox="0 0 56 56" fill="none" xmlns="http://www.w3.org/2000/svg">
<path fill-rule="evenodd" clip-rule="evenodd" d="M13.0748 15.6225C13.2957 15.3351 13.6375 15.1667 14 15.1667H46.6667C47.0291 15.1667 47.371 15.3351 47.5918 15.6225C47.8126 15.91 47.8873 16.2837 47.7939 16.6339L43.1273 34.1339C42.9911 34.6446 42.5286 35 42 35H18.6667C18.1381 35 17.6756 34.6446 17.5394 34.1339L12.8727 16.6339C12.7793 16.2837 12.854 15.91 13.0748 15.6225ZM15.5185 17.5L19.563 32.6667H41.1037L45.1481 17.5H15.5185Z" fill="white"/>
<path fill-rule="evenodd" clip-rule="evenodd" d="M7 10.5H12.8333C13.3687 10.5 13.8353 10.8643 13.9652 11.3837L15.1318 16.0504L12.8682 16.6163L11.9224 12.8333H7V10.5Z" fill="white"/>
<path fill-rule="evenodd" clip-rule="evenodd" d="M19.8334 40.8333C18.5447 40.8333 17.5 41.878 17.5 43.1667C17.5 44.4553 18.5447 45.5 19.8334 45.5C21.122 45.5 22.1667 44.4553 22.1667 43.1667C22.1667 41.878 21.122 40.8333 19.8334 40.8333ZM15.1667 43.1667C15.1667 40.5893 17.256 38.5 19.8334 38.5C22.4107 38.5 24.5 40.5893 24.5 43.1667C24.5 45.744 22.4107 47.8333 19.8334 47.8333C17.256 47.8333 15.1667 45.744 15.1667 43.1667Z" fill="white"/>
<path fill-rule="evenodd" clip-rule="evenodd" d="M40.8334 40.8333C39.5447 40.8333 38.5 41.878 38.5 43.1667C38.5 44.4553 39.5447 45.5 40.8334 45.5C42.122 45.5 43.1667 44.4553 43.1667 43.1667C43.1667 41.878 42.122 40.8333 40.8334 40.8333ZM36.1667 43.1667C36.1667 40.5893 38.256 38.5 40.8334 38.5C43.4107 38.5 45.5 40.5893 45.5 43.1667C45.5 45.744 43.4107 47.8333 40.8334 47.8333C38.256 47.8333 36.1667 45.744 36.1667 43.1667Z" fill="white"/>
</svg>
