<svg width="34" height="27" viewBox="0 0 34 27" fill="none" xmlns="http://www.w3.org/2000/svg">
<path fill-rule="evenodd" clip-rule="evenodd" d="M33.1669 3.04754L27.6889 24.3101C27.1929 26.2353 24.9547 27.0092 23.3683 26.0277C22.0693 25.224 19.3676 23.6369 14.067 20.7876C13.0126 20.2208 12.6349 18.7439 13.5396 17.7445L16.1795 14.8285L11.8504 17.2007C10.4534 17.9662 8.72591 18.4121 6.9426 18.0398C4.52216 17.5344 2.24965 16.6282 1.56368 16.343C-0.163187 15.6251 0.0720456 13.3381 1.57707 12.7229L30.6404 0.842974C32.0684 0.259268 33.552 1.55294 33.1669 3.04754ZM2.28336 14.4508C2.20702 14.482 2.20414 14.5877 2.28029 14.6194C2.93245 14.8905 5.07681 15.7433 7.32411 16.2125C8.56678 16.472 9.8401 16.1737 10.9534 15.5636L23.5424 8.66541C23.8192 8.5137 24.0964 8.86483 23.8845 9.09887L14.9235 18.9973C14.8828 19.0422 14.8974 19.1147 14.9508 19.1434C20.2694 22.0024 23.007 23.6091 24.3504 24.4403C24.919 24.7921 25.7145 24.4918 25.8813 23.8444L31.3593 2.58183C31.3612 2.5744 31.3538 2.56796 31.3467 2.57086L2.28336 14.4508Z" fill="white"/>
</svg>
