<svg width="38" height="18" viewBox="0 0 38 18" fill="none" xmlns="http://www.w3.org/2000/svg">
<path fill-rule="evenodd" clip-rule="evenodd" d="M22.384 0.399994C26.0694 0.399994 29.2085 2.73952 30.397 6.01447C30.574 6.50214 30.7077 7.01055 30.7935 7.53507C31.0898 7.45782 31.3966 7.40686 31.7114 7.38484C31.8292 7.37661 31.948 7.37242 32.0679 7.37242C34.849 7.37242 37.1035 9.62696 37.1035 12.4081C37.1035 15.1892 34.849 17.4437 32.0679 17.4437H18.0793C17.4902 17.4437 17.0126 16.9662 17.0126 16.377V3.32071C17.0126 2.67845 17.2936 2.05666 17.8364 1.71346C19.1524 0.88152 20.7119 0.399994 22.384 0.399994ZM29.004 7.82794L29.3254 9.79191L31.2511 9.28972C31.51 9.2222 31.7833 9.18576 32.0679 9.18576C33.8475 9.18576 35.2902 10.6284 35.2902 12.4081C35.2902 14.1877 33.8475 15.6304 32.0679 15.6304H18.8259V3.32071C18.8259 3.29184 18.8291 3.26682 18.8336 3.24689C18.8357 3.23783 18.8379 3.2304 18.8399 3.22455C19.8671 2.5838 21.0796 2.21333 22.384 2.21333C25.7155 2.21333 28.4829 4.64359 29.004 7.82794Z" fill="white"/>
<path d="M12.6 4.61489C12.6 4.02578 12.1224 3.54822 11.5333 3.54822C10.9442 3.54822 10.4667 4.02578 10.4667 4.61489V16.3482C10.4667 16.9373 10.9442 17.4149 11.5333 17.4149C12.1224 17.4149 12.6 16.9373 12.6 16.3482V4.61489Z" fill="white"/>
<path d="M9.4 8.34822C9.4 7.75912 8.92244 7.28155 8.33333 7.28155C7.74423 7.28155 7.26667 7.75912 7.26667 8.34822V16.3482C7.26667 16.9373 7.74423 17.4149 8.33333 17.4149C8.92244 17.4149 9.4 16.9373 9.4 16.3482V8.34822Z" fill="white"/>
<path d="M14.7333 4.08155C15.3224 4.08155 15.8 4.55912 15.8 5.14822L15.8 16.3482C15.8 16.9373 15.3224 17.4149 14.7333 17.4149C14.1442 17.4149 13.6667 16.9373 13.6667 16.3482L13.6667 5.14822C13.6667 4.55912 14.1442 4.08155 14.7333 4.08155Z" fill="white"/>
<path d="M6.19997 7.81489C6.19997 7.22578 5.72241 6.74822 5.1333 6.74822C4.5442 6.74822 4.06664 7.22578 4.06664 7.81489V16.3482C4.06664 16.9373 4.5442 17.4149 5.1333 17.4149C5.72241 17.4149 6.19997 16.9373 6.19997 16.3482V7.81489Z" fill="white"/>
<path d="M1.9333 9.94822C2.52241 9.94822 2.99997 10.4258 2.99997 11.0149V15.2816C2.99997 15.8707 2.52241 16.3482 1.9333 16.3482C1.3442 16.3482 0.866638 15.8707 0.866638 15.2816V11.0149C0.866638 10.4258 1.3442 9.94822 1.9333 9.94822Z" fill="white"/>
</svg>
